<?xml version="1.0" encoding="iso-8859-1"?>
<!-- Uploaded to: SVG Repo, www.svgrepo.com, Generator: SVG Repo Mixer Tools -->
<svg fill="#000000" height="800px" width="800px" version="1.1" id="Layer_1" xmlns="http://www.w3.org/2000/svg" xmlns:xlink="http://www.w3.org/1999/xlink" 
	 viewBox="0 0 512 512" xml:space="preserve">
<g>
	<g>
		<g>
			<path d="M346.372,351.831c-56.699,28.991-124.07,28.977-180.744,0c-3.969-2.029-8.677,0.829-8.677,5.285v41.956
				c0,3.289,2.666,5.953,5.953,5.953h186.19c3.289,0,5.953-2.665,5.953-5.953v-41.956
				C355.049,352.659,350.341,349.801,346.372,351.831z"/>
			<path d="M349.095,428.84h-186.19c-3.287,0-5.953,2.665-5.953,5.953v7.644c0,9.864,7.997,17.86,17.86,17.86h162.376
				c9.864,0,17.86-7.997,17.86-17.86v-7.644C355.049,431.505,352.384,428.84,349.095,428.84z"/>
			<path d="M298.095,484.112h-84.19c-5.502,0-8.041,6.802-3.917,10.446c26.297,23.245,65.701,23.27,92.026,0
				C306.135,490.913,303.597,484.112,298.095,484.112z"/>
			<path d="M256,0C159.576,0,81.129,78.446,81.129,174.87c0,62.731,33.219,118.716,84.433,149.709
				c11.588,7.016,23.917,12.612,36.721,16.734c3.851,1.24,7.797-1.624,7.797-5.669v-86.151c0-6.342,4.785-11.88,11.115-12.289
				c6.935-0.449,12.699,5.043,12.699,11.882v93.92c0,3.067,2.329,5.64,5.383,5.936c10.848,1.049,21.834,1.123,33.446,0
				c3.053-0.295,5.383-2.868,5.383-5.936v-93.513c0-6.342,4.787-11.879,11.115-12.289c6.935-0.449,12.699,5.043,12.699,11.882
				v86.559c0,4.045,3.946,6.908,7.798,5.669c12.803-4.121,25.132-9.717,36.718-16.732c51.221-30.996,84.436-86.982,84.436-149.71
				C430.872,78.446,352.424,0,256,0z"/>
		</g>
	</g>
</g>
</svg>